<?xml version="1.0" encoding="utf-8"?>
<!-- Generator: Adobe Illustrator 16.0.0, SVG Export Plug-In . SVG Version: 6.00 Build 0)  -->
<!DOCTYPE svg PUBLIC "-//W3C//DTD SVG 1.1//EN" "http://www.w3.org/Graphics/SVG/1.1/DTD/svg11.dtd">
<svg version="1.1" id="Teacher_1_" xmlns="http://www.w3.org/2000/svg" xmlns:xlink="http://www.w3.org/1999/xlink" x="0px" y="0px"
	 width="512px" height="512px" viewBox="0 0 512 512" enable-background="new 0 0 512 512" xml:space="preserve">
<circle id="Background_4_" fill="#9ACCB0" cx="256.365" cy="256" r="256"/>
<path id="Shadow" opacity="0.1" d="M506.425,310.99L256.435,61v450.999C378.91,511.967,481.265,425.923,506.425,310.99z"/>
<g id="Teacher">
	<path fill="#FFD0AE" d="M350.097,360.184c-74.442,0-57.834-36.507-62.884-73.06h-61.694c-5.05,36.553,11.558,73.06-62.884,73.06
		c-47.574,0-63.807,20.847-63.807,66.709v30.9C142.269,491.754,196.951,512,256.366,512s114.097-20.245,157.538-54.207v-30.9
		C413.903,381.03,397.67,360.184,350.097,360.184z"/>
	<path opacity="0.1" d="M288.483,308.324c-0.162-6.264-0.377-12.73-1.271-19.2h-61.694c-0.89,6.439-1.107,12.877-1.269,19.114
		c8.926,5.721,19.539,9.159,32.184,9.159C269.016,317.397,279.585,313.993,288.483,308.324z"/>
	<path fill="#F0E1AD" d="M350.097,360.184c-9.712,0-17.862-0.627-24.725-1.788l-69.006,7.519l-69.006-7.519
		c-6.863,1.161-15.012,1.788-24.724,1.788c-47.574,0-63.807,20.847-63.807,66.709v30.9C142.269,491.754,196.951,512,256.366,512
		s114.097-20.245,157.538-54.207v-30.9C413.903,381.03,397.67,360.184,350.097,360.184z"/>
	<path fill="#A07F53" d="M258.793,365.649l-2.427,0.265v146.035h4.724c0.342-0.006,0.685-0.007,1.025-0.015V365.649H258.793z"/>
	<polygon fill="#A07F53" points="221.846,332.181 217.105,332.181 187.12,358.057 219.301,403.615 256.366,365.914 	"/>
	<polygon fill="#A07F53" points="290.988,332.181 295.627,332.181 325.611,358.057 293.431,403.615 256.366,365.914 	"/>
	<circle fill="#6D5739" cx="256.435" cy="117.5" r="56.5"/>
	<path fill="#6D5739" d="M272.654,96.728h-32.439c-42.657,0-77.237,44.574-77.237,82.58c0,0-8.119,123.96,93.457,123.96
		s93.457-123.96,93.457-123.96C349.892,141.301,315.312,96.728,272.654,96.728z"/>
	<ellipse fill="#FFD0AE" cx="181.553" cy="223.44" rx="13.799" ry="16.269"/>
	<ellipse fill="#FFD0AE" cx="331.316" cy="223.44" rx="13.798" ry="16.269"/>
	<path fill="#FFD0AE" d="M270.157,106.669h-27.445c-36.089,0-65.345,42.325-65.345,78.415c0,0,2.112,126.77,79.068,126.77
		c76.955,0,79.068-126.77,79.068-126.77C335.503,148.994,306.246,106.669,270.157,106.669z"/>
	<path fill="#6D5739" d="M270.157,105.286h-27.445c-36.089,0-89.674,53.056-62.293,119.155c3.714-31.596,28.476-6.103,36.947-50.309
		c14.035,57.926,110.871,7.051,115.084,50.309C357.717,156.002,306.246,105.286,270.157,105.286z"/>
	<path opacity="0.1" d="M217.366,174.131c-8.471,44.207-33.233,18.713-36.947,50.309l0.91,2.95
		c3.669-31.216,28.134-6.029,36.502-49.704c13.866,57.229,109.537,6.966,113.7,49.704l0.919-2.95
		C328.236,181.182,231.401,232.057,217.366,174.131z"/>
	<path opacity="0.2" d="M219.301,407.608l37.064-38.708l37.065,38.708l35.168-48.722l-0.025-0.007
		c-1.093-0.15-2.167-0.31-3.201-0.484l-31.941,45.22l-37.065-37.701l-37.064,37.701l-31.942-45.22
		c-1.034,0.175-2.108,0.334-3.202,0.484l-0.025,0.007L219.301,407.608z"/>
	<circle fill="#EFF0F0" cx="180.419" cy="239.709" r="4.307"/>
	<circle fill="#EFF0F0" cx="332.45" cy="239.709" r="4.307"/>
	<circle fill="#A07F53" cx="276.699" cy="425" r="5"/>
	<path opacity="0.1" d="M279.479,420.846c0.533,0.795,0.846,1.75,0.846,2.779c0,2.762-2.238,5-5,5c-1.029,0-1.984-0.313-2.78-0.846
		c0.897,1.339,2.423,2.221,4.155,2.221c2.762,0,5-2.238,5-5C281.699,423.268,280.817,421.742,279.479,420.846z"/>
	<circle fill="#A07F53" cx="276.699" cy="475" r="5"/>
	<path opacity="0.1" d="M279.479,470.846c0.533,0.795,0.846,1.75,0.846,2.779c0,2.762-2.238,5-5,5c-1.029,0-1.984-0.313-2.78-0.846
		c0.897,1.339,2.423,2.221,4.155,2.221c2.762,0,5-2.238,5-5C281.699,473.268,280.817,471.742,279.479,470.846z"/>
	<path fill="#4F4E3D" d="M291.635,214.25c-15.676,0-27.971,7.016-28.125,16.001c-1.722-0.46-4.063-0.849-7.075-0.849
		s-5.353,0.388-7.075,0.849c-0.154-8.986-12.449-16.001-28.125-16.001c-15.775,0-28.132,7.104-28.132,16.171
		c0,9.068,12.357,16.172,28.132,16.172c13.099,0,23.833-4.899,27.102-11.753c0.986-0.46,3.609-1.438,8.099-1.438
		c4.46,0,7.109,0.985,8.102,1.443c3.271,6.851,14.004,11.748,27.099,11.748c15.775,0,28.133-7.104,28.133-16.172
		C319.768,221.354,307.41,214.25,291.635,214.25z M221.234,242.593c-13.081,0-24.132-5.574-24.132-12.172
		s11.051-12.171,24.132-12.171c13.082,0,24.133,5.574,24.133,12.171S234.316,242.593,221.234,242.593z M291.635,242.593
		c-13.082,0-24.133-5.574-24.133-12.172s11.051-12.171,24.133-12.171c13.08,0,24.133,5.574,24.133,12.171
		S304.715,242.593,291.635,242.593z"/>
</g>
</svg>
